<?xml version="1.0" encoding="utf-8"?>
<!-- Generator: Adobe Illustrator 23.0.6, SVG Export Plug-In . SVG Version: 6.00 Build 0)  -->
<svg version="1.1" id="Layer_1" xmlns="http://www.w3.org/2000/svg" xmlns:xlink="http://www.w3.org/1999/xlink" x="0px" y="0px"
	 viewBox="0 0 1095.6 173" style="enable-background:new 0 0 1095.6 173;" xml:space="preserve">
<style type="text/css">
	.st0{fill:#FF2B06;}
	.st1{fill:#FFFFFF;}
</style>
<title>Asset 1</title>
<g>
	<g id="Layer_1-2">
		<path class="st0" d="M10.6,152.1L3,141.2h7.2l4.1,6l4-6h7L17.7,152l8.5,12.2H19l-4.8-7.2l-4.8,7.2H2.3L10.6,152.1z"/>
		<path class="st0" d="M29.6,27.3H0V0.2h91.9v27.1H62.2V106H29.6V27.3z"/>
		<path class="st0" d="M96.9,0.2h89.2v27.1h-56.6v13.2h56.6v25.2h-56.6v13.2h56.6V106H96.9V0.2z"/>
		<path class="st0" d="M191.6,0.2h53.5c35.3,0,47.7,26.1,47.7,52.8c0,32.5-17.2,53.1-54.1,53.1h-47.1V0.2z M224.2,78.9H237
			c20.3,0,23.3-16.5,23.3-26.4c0-6.7-2.1-25.2-25.6-25.2h-10.4V78.9z"/>
		<path class="st0" d="M339.7,65.2l-10-16.5L320,65.2h-23.9l22.7-33.3L297,0h23.9l8.9,15.8L338.9,0h23.9l-21.8,31.9l22.7,33.3H339.7
			z"/>
		<g id="varitate">
			<rect x="482.6" y="132.5" class="st1" width="6.3" height="5.2"/>
			<rect x="67.1" y="132.5" class="st1" width="6.3" height="5.2"/>
			<path class="st1" d="M267.4,140.6c-7,0-11.8,5.2-11.8,12.1c0,7.1,4.5,12.1,11.8,12.1c5.2,0,9-2.3,10.8-7.7h-5.6
				c-0.4,1.4-2.5,3-5,3c-3.5,0-5.5-1.8-5.6-5.8h16.6C279,147.2,275.2,140.6,267.4,140.6z M261.9,150.3c0.1-2.8,2.3-5,5.1-4.9
				c0.1,0,0.1,0,0.2,0c3.1,0,4.5,1.7,5,4.9H261.9z"/>
			<path class="st1" d="M303,150.1v14.1h-6.3v-13c0-3.8-1.1-5.6-4.1-5.6c-3.4,0-4.9,1.9-4.9,6.6v12.1h-6.3v-23h6v3.2h0.1
				c1.5-2.4,4.2-3.8,7-3.8C301.3,140.6,303,144.4,303,150.1z"/>
			<rect x="67.1" y="141.2" class="st1" width="6.3" height="23"/>
			<path class="st1" d="M139.9,140.6c-7,0-11.8,5.2-11.8,12.1c0,7.1,4.5,12.1,11.8,12.1c5.2,0,9-2.3,10.8-7.7h-5.6
				c-0.4,1.4-2.4,3-5,3c-3.5,0-5.5-1.8-5.6-5.8h16.6C151.6,147.2,147.8,140.6,139.9,140.6z M134.5,150.3c0.1-2.8,2.3-5,5.1-4.9
				c0.1,0,0.1,0,0.2,0c3.1,0,4.4,1.7,5,4.9H134.5z"/>
			<rect x="33.7" y="155.4" class="st1" width="22.5" height="4.8"/>
			<path class="st1" d="M190.9,140.6c-7,0-11.8,5.2-11.8,12.1c0,7.1,4.5,12.1,11.8,12.1c5.2,0,9-2.3,10.8-7.7h-5.6
				c-0.4,1.4-2.4,3-5,3c-3.5,0-5.5-1.8-5.6-5.8h16.6C202.5,147.2,198.7,140.6,190.9,140.6z M185.5,150.3c0.1-2.8,2.3-5,5.1-4.9
				c0.1,0,0.1,0,0.2,0c3.1,0,4.4,1.7,5,4.9H185.5z"/>
			<path class="st1" d="M226.5,150.1v14.1h-6.3v-13c0-3.8-1.1-5.6-4.1-5.6c-3.4,0-4.9,1.9-4.9,6.6v12.1h-6.3v-23h6v3.2h0.1
				c1.5-2.4,4.2-3.8,7-3.8C224.8,140.6,226.5,144.4,226.5,150.1z"/>
			<path class="st1" d="M246.5,144L246.5,144c-1.6-2.2-4.1-3.5-6.9-3.4c-6.8,0-10.2,5.7-10.2,11.9c0,6.4,3.4,12.3,10.3,12.3
				c2.9,0,5.5-1.1,7-3.6h0.1v2.9h6v-31.8h-6.3L246.5,144z M241.3,160.1c-3.9,0-5.6-3.8-5.6-7.4c0-3.8,1.4-7.3,5.6-7.3
				s5.4,3.6,5.4,7.3S245.5,160.1,241.3,160.1L241.3,160.1z"/>
			<path class="st1" d="M119.1,144L119.1,144c-1.6-2.2-4.1-3.5-6.8-3.4c-6.8,0-10.2,5.7-10.2,11.9c0,6.4,3.4,12.3,10.3,12.3
				c2.9,0,5.5-1.1,7-3.6h0.1v2.9h6v-31.8h-6.3L119.1,144z M113.9,160.1c-3.9,0-5.6-3.8-5.6-7.4c0-3.8,1.4-7.3,5.6-7.3
				s5.4,3.6,5.4,7.3S118.1,160.1,113.9,160.1z"/>
			<path class="st1" d="M99.1,150.1v14.1h-6.3v-13c0-3.8-1.1-5.6-4.1-5.6c-3.4,0-4.9,1.9-4.9,6.6v12.1h-6.3v-23h6v3.2h0.1
				c1.5-2.4,4.2-3.8,7-3.8C97.4,140.6,99.1,144.4,99.1,150.1z"/>
			<path class="st1" d="M166.9,140.6c-2.8-0.1-5.4,1.2-6.9,3.6H160v-2.9h-6v31.1h6.3v-11h0.1c1.6,2.2,4.2,3.5,6.9,3.5
				c6.7,0,10.1-5.7,10.1-11.9C177.4,146.4,174.1,140.6,166.9,140.6z M165.6,160.1c-4.1,0-5.5-3.6-5.5-7.3s1.3-7.4,5.5-7.4
				s5.5,3.8,5.5,7.4S169.7,160.1,165.6,160.1z"/>
			<rect x="33.7" y="145.9" class="st1" width="22.5" height="4.8"/>
			<path class="st1" d="M453.8,147.1c0-5.5-5.5-6.5-10.1-6.5c-5.2,0-10.5,1.8-10.8,7.7h6.3c0.2-2.5,1.8-3.5,4.2-3.5
				c2.2,0,4.1,0.4,4.1,3.1s-3.6,2.4-7.5,3s-7.8,1.8-7.8,7c0,4.7,3.5,6.9,7.8,6.9c2.9,0.1,5.7-0.9,7.8-2.8c0.1,0.8,0.2,1.5,0.4,2.2
				h6.4c-0.6-0.9-0.8-3-0.8-5.1V147.1z M447.5,155.3c0,1.4-0.2,5.3-5.1,5.3c-2,0-3.9-0.6-3.9-2.9s1.8-3,3.7-3.4s4.2-0.4,5.2-1.3
				V155.3z"/>
			<polygon class="st1" points="500,159.5 512.8,159.5 512.8,164.2 491.6,164.2 491.6,159.5 503.6,146 492.5,146 492.5,141.2 
				511.9,141.2 511.9,146 			"/>
			<path class="st1" d="M423.9,144.3L423.9,144.3c-1.6-2.7-3.9-3.7-6.9-3.7c-6.5,0-9.9,5.4-9.9,11.4c0,6.3,2.9,11.6,9.8,11.6
				c2.8,0.1,5.4-1.2,6.9-3.6h0.1v3c0,3.3-1.6,5.7-5.1,5.7c-2.2,0-4.1-0.8-4.7-3.2h-6.3c0.3,5.2,5.6,7.4,10.1,7.4
				c10.6,0,11.9-6.4,11.9-10.2v-21.5h-6L423.9,144.3z M418.5,158.8c-3.9,0-5.1-3.6-5.1-6.9s1.6-6.5,5.1-6.5c4.1,0,5.4,3.3,5.4,7.1
				C423.9,155.7,422.1,158.8,418.5,158.8z"/>
			<path class="st1" d="M556,132.5V144l0,0c-1.6-2.2-4.1-3.5-6.9-3.4c-6.8,0-10.2,5.7-10.2,11.9c0,6.4,3.4,12.3,10.3,12.3
				c2.9,0,5.5-1.1,7-3.6h0.1v2.9h6v-31.8H556z M550.8,160.1c-3.9,0-5.6-3.8-5.6-7.4c0-3.8,1.4-7.3,5.6-7.3s5.4,3.6,5.4,7.3
				S555,160.1,550.8,160.1L550.8,160.1z"/>
			<rect x="482.6" y="141.2" class="st1" width="6.3" height="23"/>
			<path class="st1" d="M314.9,141.2h4.6v4.2h-4.6v11.4c0,2.1,0.5,2.7,2.7,2.7c0.7,0,1.3,0,2-0.2v4.9c-1.2,0.2-2.5,0.2-3.7,0.2
				c-3.9,0-7.3-0.9-7.3-5.5v-13.6h-3.8v-4.2h3.8v-6.9h6.3L314.9,141.2z"/>
			<path class="st1" d="M479.4,150.1v14.1h-6.3v-13c0-3.8-1.1-5.6-4-5.6c-3.4,0-4.9,1.9-4.9,6.6v12.1h-6.3v-23h6v3.2h0.2
				c1.5-2.4,4.2-3.8,7-3.8C477.7,140.6,479.4,144.4,479.4,150.1z"/>
			<path class="st1" d="M404.8,140.6c0.5,0,0.9,0.1,1.4,0.2v5.9c-0.7-0.1-1.5-0.2-2.3-0.2c-4.6,0-6.2,3.3-6.2,7.4v10.4h-6.3v-23h6
				v4.3h0.1C398.7,142.6,401.6,140.7,404.8,140.6z"/>
			<path class="st1" d="M377.1,140.6c-7.2,0-11.9,4.8-11.9,12.1s4.7,12.1,11.9,12.1s11.9-4.8,11.9-12.1S384.4,140.6,377.1,140.6z
				 M377.1,160.1c-4.3,0-5.6-3.7-5.6-7.3s1.3-7.4,5.6-7.4s5.6,3.7,5.6,7.4S381.4,160.1,377.1,160.1z"/>
			<path class="st1" d="M525.9,140.6c-7,0-11.8,5.2-11.8,12.1c0,7.1,4.5,12.1,11.8,12.1c5.2,0,9-2.3,10.8-7.7h-5.6
				c-0.4,1.4-2.5,3-5,3c-3.5,0-5.5-1.8-5.7-5.8h16.6C537.5,147.2,533.7,140.6,525.9,140.6z M520.5,150.3c0.1-2.8,2.3-5,5.1-4.9
				c0.1,0,0.1,0,0.2,0c3.1,0,4.5,1.7,5,4.9H520.5z"/>
			<rect x="321.8" y="132.5" class="st1" width="6.3" height="31.8"/>
			<path class="st1" d="M346.7,141.2h6.5l-9.6,25.9c-1.4,3.7-3.6,5.2-7.9,5.2c-1.3,0-2.6-0.1-3.9-0.2v-5.2c1.2,0.1,2.5,0.2,3.7,0.2
				c2.2-0.2,2.9-2.5,2.2-4.3l-8.1-21.6h6.8l5.2,15.8h0.1L346.7,141.2z"/>
			<path class="st1" d="M685.3,140.6c-7,0-11.8,5.2-11.8,12.1c0,7.1,4.5,12.1,11.8,12.1c5.2,0,9-2.3,10.8-7.7h-5.6
				c-0.4,1.4-2.4,3-5,3c-3.5,0-5.5-1.8-5.7-5.8h16.6C696.9,147.2,693.1,140.6,685.3,140.6z M679.9,150.3c0.1-2.8,2.3-5,5.1-4.9
				c0.1,0,0.1,0,0.2,0c3.1,0,4.5,1.7,5,4.9H679.9z"/>
			<path class="st1" d="M730.4,140.6c-7,0-11.8,5.2-11.8,12.1c0,7.1,4.5,12.1,11.8,12.1c5.2,0,9-2.3,10.8-7.7h-5.6
				c-0.4,1.4-2.4,3-5,3c-3.5,0-5.5-1.8-5.7-5.8h16.6C742,147.2,738.2,140.6,730.4,140.6z M725,150.3c0.1-2.8,2.3-5,5.1-4.9
				c0.1,0,0.1,0,0.2,0c3.1,0,4.5,1.7,5,4.9H725z"/>
			<path class="st1" d="M777.9,145.5v11.4c0,2.1,0.5,2.7,2.7,2.7c0.7,0,1.3,0,2-0.2v4.9c-1.2,0.2-2.5,0.2-3.7,0.2
				c-3.9,0-7.2-0.9-7.2-5.5v-13.6h-3.8v-4.2h3.8v-6.9h6.3v6.9h4.6v4.2H777.9z"/>
			<polygon class="st1" points="611.7,158.4 628.8,158.4 628.8,164.2 604.7,164.2 604.7,132.5 628.4,132.5 628.4,138.3 611.7,138.3 
				611.7,145.1 627.1,145.1 627.1,150.6 611.7,150.6 			"/>
			<path class="st1" d="M645.4,132.5h-13.7v31.8h13.7c9.7,0,14.4-6.9,14.4-16.1C659.9,137.6,653.7,132.5,645.4,132.5z M645,158.4
				h-6.2v-20h5c6.9,0,9.2,4.1,9.2,10.5C652.9,155.9,649,158.4,645,158.4z"/>
			<polygon class="st1" points="718.9,141.2 711.1,164.2 704.1,164.2 696.2,141.2 702.9,141.2 707.7,156.9 707.8,156.9 712.7,141.2 
							"/>
			<polygon class="st1" points="575.9,132.5 601.9,132.5 601.9,138.3 592.4,138.3 592.4,164.2 585.4,164.2 585.4,138.3 575.9,138.3 
							"/>
			<path class="st1" d="M766,150.1v14.1h-6.3v-13c0-3.8-1.1-5.6-4-5.6c-3.4,0-4.9,1.9-4.9,6.6v12.1h-6.3v-23h6v3.2h0.1
				c1.5-2.4,4.2-3.8,7-3.8C764.3,140.6,766,144.4,766,150.1z"/>
			<path class="st1" d="M555.2,96.5c-1.8,0-2.9-0.4-3.5-1.2c-0.6-1-0.9-2.1-0.8-3.2v-44c0-7.2-2.8-12.6-8.3-16s-12.8-5.1-21.9-5.1
				c-7.2-0.2-14.3,1.8-20.4,5.5c-5.9,3.6-8.9,10.2-9.1,19.7h12c0.5-4,1.5-7,3-9c2.8-3.6,7.5-5.5,14.2-5.5c5.8,0,10.2,1,13.3,3
				s4.7,5.2,4.7,9.6c0.1,1.7-0.2,3.4-0.8,4.9c-1,2.1-3,3.3-5.9,3.7l-20.5,2.6c-7.2,0.9-13,3.3-17.4,7.2c-4.4,3.9-6.6,9.4-6.7,16.5
				c-0.2,6.1,2.3,12,6.7,16.1c4.5,4.3,10.3,6.4,17.4,6.4c5.6,0.1,11.2-1.2,16.2-3.7c4.4-2.1,8.2-5.1,11.3-8.9c0.2,2.5,1,4.9,2.2,7.1
				c2,3.1,5.2,4.7,9.6,4.7c1.4,0,2.9-0.1,4.3-0.2c1.5-0.3,3.1-0.6,4.6-1.1v-9.5c-0.8,0.1-1.6,0.2-2.3,0.3S555.8,96.5,555.2,96.5z
				 M538.1,76.7c0,7.9-3.6,13.5-10.7,17c-4.1,2-8.6,3.1-13.1,3.1c-3.5,0.1-6.9-1.1-9.6-3.2c-2.7-2.1-4.2-5.3-4.1-8.8
				c0-4.9,2-8.4,6-10.7c2.3-1.3,5.8-2.3,10.5-2.9l7.8-1c2.5-0.3,4.9-0.8,7.3-1.4c2.1-0.5,4.2-1.4,6-2.5V76.7z"/>
			<path class="st1" d="M631.1,83.1c0,6.7-2.8,13.1-7.8,17.6c-5.2,4.9-13.2,7.4-23.9,7.4c-11.5,0-19.6-2.6-24.4-7.7
				c-4.8-5.2-7.6-12-7.7-19.1h12.3c0.4,4.3,1.5,7.6,3.3,9.8c3.3,4.1,9,6.2,17.2,6.2c4.5,0.1,8.9-1,12.8-3.1c3.6-1.8,5.7-5.6,5.5-9.6
				c0.1-3.1-1.6-6-4.4-7.5c-1.9-1-5.6-2.2-11.2-3.6l-10.4-2.6c-6.6-1.6-11.5-3.4-14.6-5.4c-5.6-3.5-8.4-8.3-8.4-14.4
				c-0.2-6.8,2.7-13.2,7.9-17.5c5.3-4.5,12.4-6.7,21.3-6.7c11.7,0,20.1,3.4,25.2,10.1c3.1,3.9,4.8,8.8,4.7,13.8h-12.2
				c-0.2-2.9-1.3-5.6-3.1-7.9c-3-3.3-8.2-5-15.7-5c-5,0-8.7,0.9-11.3,2.8c-2.4,1.6-3.9,4.4-3.8,7.3c0,3.3,1.7,6,5,8
				c2.7,1.4,5.6,2.5,8.6,3l8.7,2.1c9.4,2.2,15.7,4.4,18.9,6.5C628.5,70.9,631.1,76,631.1,83.1z"/>
			<polygon class="st1" points="436.4,42.7 482.1,105.2 463.5,105.2 426,52.5 408.9,68.7 408.9,105.2 395.1,105.2 395.1,0.4 
				408.9,0.4 408.9,51.7 461.3,0.4 481.1,0.4 			"/>
			<path class="st1" d="M825.8,83.1c0,6.7-2.8,13.1-7.8,17.6c-5.2,4.9-13.2,7.4-23.9,7.4c-11.5,0-19.6-2.6-24.4-7.7
				c-4.8-5.2-7.6-12-7.7-19.1h12.3c0.4,4.3,1.5,7.6,3.3,9.8c3.3,4.1,9,6.2,17.2,6.2c4.5,0.1,8.9-1,12.8-3.1c3.6-1.8,5.7-5.6,5.5-9.6
				c0.1-3.1-1.6-6-4.4-7.5c-1.9-1-5.6-2.2-11.2-3.6l-10.4-2.6c-6.6-1.6-11.5-3.4-14.6-5.4c-5.6-3.5-8.4-8.3-8.4-14.4
				c-0.2-6.8,2.7-13.2,7.9-17.5c5.3-4.5,12.4-6.7,21.3-6.7c11.7,0,20.1,3.4,25.2,10.1c3.1,3.9,4.8,8.8,4.7,13.8h-12.1
				c-0.2-2.9-1.3-5.6-3.1-7.9c-3-3.3-8.2-5-15.7-5c-5,0-8.7,0.9-11.3,2.8c-2.4,1.6-3.9,4.4-3.8,7.3c0,3.3,1.7,6,5,8
				c2.7,1.5,5.6,2.5,8.6,3.1l8.6,2.1c9.4,2.2,15.7,4.4,18.9,6.5C823.3,70.9,825.8,76,825.8,83.1z"/>
			<path class="st1" d="M955.5,27.2c0.6,0,1.5,0.1,2.9,0.3V41c-0.7-0.1-1.4-0.2-2.1-0.3c-0.6,0-1.3-0.1-2.1-0.1
				c-6.5,0-11.4,2.1-14.9,6.2c-3.4,4-5.3,9.1-5.2,14.4v43.9h-12.8V28.8h12.2V42c1-2.6,3.4-5.7,7.3-9.4c3.6-3.6,8.4-5.5,13.5-5.5
				C954.5,27.1,954.9,27.1,955.5,27.2z"/>
			<path class="st1" d="M985.1,28.8h12.2v10.5h-12.2v49.8c0,2.7,0.9,4.4,2.7,5.3c1.6,0.6,3.3,0.9,5,0.8c0.6,0,1.3,0,2,0
				s1.5-0.1,2.5-0.2v10.2c-1.5,0.4-3,0.7-4.6,0.9c-1.7,0.2-3.4,0.3-5.2,0.3c-6,0-10.1-1.5-12.2-4.6c-2.1-3.1-3.2-7.1-3.2-12V39.3
				h-10.4V28.8h10.3V7.5h13L985.1,28.8z"/>
			<path class="st1" d="M904.2,96.5c-1.8,0-2.9-0.4-3.5-1.2c-0.6-1-0.9-2.1-0.8-3.2v-44c0-7.2-2.8-12.6-8.3-16s-12.8-5.1-21.9-5.1
				c-7.2-0.2-14.3,1.8-20.4,5.5c-5.9,3.6-8.9,10.2-9.1,19.7h12c0.5-4,1.5-7,3-9c2.8-3.6,7.5-5.5,14.2-5.5c5.8,0,10.2,1,13.3,3
				c3.1,2,4.7,5.2,4.7,9.6c0.1,1.7-0.2,3.4-0.8,4.9c-1,2.1-3,3.3-5.9,3.7l-20.5,2.6c-7.2,0.9-13,3.3-17.4,7.2
				c-4.4,3.9-6.6,9.4-6.6,16.5c-0.2,6.1,2.3,12,6.7,16.1c4.5,4.3,10.3,6.4,17.4,6.4c5.6,0.1,11.2-1.2,16.2-3.7
				c4.4-2.1,8.2-5.1,11.3-8.9c0.2,2.5,1,4.9,2.2,7.1c2,3.1,5.2,4.7,9.6,4.7c1.4,0,2.9-0.1,4.3-0.2c1.5-0.3,3.1-0.6,4.6-1.1v-9.5
				c-0.8,0.1-1.6,0.2-2.3,0.3S904.7,96.5,904.2,96.5z M887.1,76.7c0,7.9-3.6,13.5-10.7,17c-4.1,2-8.6,3.1-13.1,3.1
				c-3.5,0.1-6.9-1.1-9.6-3.2c-2.7-2.1-4.2-5.3-4.1-8.8c0-4.9,2-8.4,6-10.7c2.3-1.3,5.8-2.3,10.5-2.9l7.8-1c2.4-0.3,4.8-0.8,7.2-1.4
				c2.1-0.5,4.1-1.4,6-2.5L887.1,76.7z"/>
			<path class="st1" d="M1095.6,0.4v58.8c0,12.9-1.7,22.8-5.2,29.7c-6.4,12.7-18.5,19-36.2,19c-17.7,0-29.8-6.3-36.2-19
				c-3.5-6.9-5.2-16.8-5.2-29.7V0.4h14.3v64.7c0,7.6,1.4,13.9,4.3,19c4.3,7.6,11.4,11.4,21.6,11.4c12.1,0,20.4-4.1,24.7-12.3
				c2.3-4.5,3.5-10.5,3.5-18V0.4H1095.6z"/>
			<path class="st1" d="M708.8,54.3c-0.7-4.8-2.5-9.4-5.1-13.5c-2.9-4.3-6.9-7.7-11.5-9.9c-4.8-2.5-10.2-3.8-15.7-3.8
				c-10.7,0-19.3,3.8-25.9,11.5s-9.9,17.6-9.9,29.9c0,12.4,3.3,22.1,9.8,29c6.1,6.7,14.9,10.5,24,10.4c3.5,0,7-0.3,10.4-1.1
				c5.4-1.2,10.4-3.9,14.4-7.7c2.5-2.5,4.6-5.3,6.3-8.4c1.7-2.9,2.8-6.1,3.3-9.4h-12.6c-0.9,3.3-2.5,6.4-4.7,9
				c-4,4.4-9.3,6.7-15.9,6.7c-7.1,0-12.4-2.3-15.8-7c-3.4-4.7-5.2-10.9-5.5-18.7h55.5C709.9,63.4,709.5,57.8,708.8,54.3z
				 M654.7,60.9c0.2-6.6,2.3-12,6.3-16.2c3.7-4.2,9.1-6.5,14.7-6.4c8.2,0,14,3.1,17.5,9.3c1.9,3.3,3.1,7.8,3.6,13.3H654.7z"/>
			<path class="st1" d="M741.7,28.8h12.2v10.5h-12.2v49.8c0,2.7,0.9,4.4,2.7,5.3c1.6,0.6,3.3,0.9,5,0.8c0.6,0,1.3,0,2,0
				s1.5-0.1,2.5-0.2v10.2c-1.5,0.4-3,0.7-4.6,0.9c-1.7,0.2-3.4,0.3-5.2,0.3c-6,0-10.1-1.5-12.2-4.6c-2.1-3.1-3.2-7.1-3.2-12V39.3
				h-10.4V28.8h10.3V7.5h13L741.7,28.8z"/>
		</g>
	</g>
</g>
</svg>
